<svg xmlns="http://www.w3.org/2000/svg" xmlns:svg="http://www.w3.org/2000/svg" id="svg2" width="76" height="76" enable-background="new 0 0 76 76" version="1.1" viewBox="0 0 76 76" xml:space="preserve"><metadata id="metadata10"/><path id="path4" d="m 37.600018,59.599927 c 3.976586,0 7.200128,3.223541 7.200128,7.200128 0,3.976404 -3.223542,7.199945 -7.200128,7.199945 -3.976404,0 -7.199945,-3.223541 -7.199945,-7.199945 0,-3.976587 3.223541,-7.200128 7.199945,-7.200128 z M 39.04008,2 c 12.724639,0 23.039898,8.230562 23.039898,20.159956 0,4.320004 -2.879942,11.519949 -8.639825,14.400073 -5.760066,2.879942 -8.640007,6.748301 -8.640007,11.519949 l 0,5.760066 -14.400073,0 0,-4.320004 c 0,-9.794312 8.640007,-15.840135 11.519949,-18.720076 5.760065,-5.760066 5.760065,-6.55913 5.760065,-8.640008 0,-4.771648 -3.868358,-8.640007 -8.640007,-8.640007 -4.771831,0 -8.640007,3.868359 -8.640007,8.640007 l 0,4.320004 -14.400073,0 0,-2.879942 C 16,11.670624 26.315441,2 39.04008,2 z" style="fill:#000;fill-opacity:1;stroke-width:.2;stroke-linejoin:round"/></svg>