<svg xmlns="http://www.w3.org/2000/svg" xmlns:svg="http://www.w3.org/2000/svg" id="svg2" width="76" height="76" enable-background="new 0 0 76 76" version="1.1" viewBox="0 0 76 76" xml:space="preserve"><metadata id="metadata10"/><path id="path4" d="M 46.847751,2.0000003 C 61.843612,2.0000003 74,14.156388 74,29.152249 c 0,14.995862 -12.156388,27.15225 -27.152249,27.15225 -5.135903,0 -9.93881,-1.426036 -14.11917,-3.817389 L 13.12444,72.091468 c -2.544927,2.544709 -6.6709823,2.544709 -9.2159082,0 -2.544709,-2.544926 -2.544709,-6.670981 0,-9.215908 L 23.599126,43.186704 c -2.477589,-4.095645 -3.903625,-8.898552 -3.903625,-14.034455 0,-14.995861 12.156388,-27.1522487 27.15225,-27.1522487 z m 0,8.6887197 c -10.197082,0 -18.46353,8.266448 -18.46353,18.463529 0,10.197082 8.266448,18.46353 18.46353,18.46353 10.197081,0 18.463529,-8.266448 18.463529,-18.46353 0,-10.197081 -8.266448,-18.463529 -18.463529,-18.463529 z" style="fill:#000;fill-opacity:1;stroke-width:.2;stroke-linejoin:round"/></svg>