<svg xmlns="http://www.w3.org/2000/svg" xmlns:svg="http://www.w3.org/2000/svg" id="svg2" width="76" height="76" enable-background="new 0 0 76 76" version="1.1" viewBox="0 0 76 76" xml:space="preserve"><metadata id="metadata10"/><path id="path4" d="m 3.846154,43.846065 0,-14.769291 14.769231,0 0,14.769291 -14.769231,0 z m 22.153661,0 0,-14.769291 48,0 0,14.769291 -48,0 z M 26,49.384548 l 48,0 0,14.769291 -48,0 0,-14.769291 z m 1.846154,1.846161 0,11.076968 44.307692,0 0,-11.076968 -44.307692,0 z m -20.307692,-3.692321 7.384615,0 0,5.538483 5.538461,0 0,7.384645 -5.538461,0 0,5.538484 -7.384615,0 0,-5.538484 -5.538462,0 0,-7.384645 5.538462,0 0,-5.538483 z m 1.846153,1.84616 0,5.538484 -5.538461,0 0,3.692323 5.538461,0 0,5.538484 3.692308,0 0,-5.538484 5.538462,0 0,-3.692323 -5.538462,0 0,-5.538484 -3.692308,0 z m -5.538277,-25.846257 0,-14.769291 14.769231,0 0,14.769291 -14.769231,0 z m 22.153847,0 0,-14.769291 47.999815,0 0,14.769291 -47.999815,0 z" style="fill:#000;fill-opacity:1;stroke-width:.2;stroke-linejoin:round"/></svg>