<svg xmlns="http://www.w3.org/2000/svg" xmlns:svg="http://www.w3.org/2000/svg" id="svg2" width="76" height="76" enable-background="new 0 0 76 76" version="1.1" viewBox="0 0 76 76" xml:space="preserve"><metadata id="metadata10"/><path id="path4" d="m 2,24.315867 15.15793,0 0,-15.157867 L 2,9.158 2,24.315867 z m 22.7369,0 49.2631,0 0,-15.157867 -49.2631,0 0,15.157867 z m 0,5.684199 0,15.157867 7.57897,0 0,-1.894922 -5.68423,1.89e-4 0,-11.3684 17.05268,-1.89e-4 0,-1.894545 -18.94742,0 z M 74,45.157933 l 0,-15.157867 -18.94742,-1.89e-4 0,1.894734 17.05268,1.89e-4 0,11.3684 -5.68423,-1.89e-4 0,1.894732 7.57897,1.9e-4 z m -39.78939,-8.052616 0,10.421033 15.15794,15.157867 15.15793,-15.157867 0,-10.421033 -11.36845,11.3684 0,-18.473651 -7.57897,0 0,18.473651 -11.36845,-11.3684 z M 24.7369,66 74,66 l 0,-15.157867 -9.00002,0 -1.89475,1.894733 9.00022,0 0,11.3684 -45.47381,0 0,-11.3684 9.00003,0 -1.89474,-1.894733 -9.00003,0 0,15.157867 z M 2,66 l 15.15793,0 0,-15.157867 L 2,50.842133 2,66 z m 1.89474,-1.894734 0,-11.3684 11.36845,0 0,11.3684 -11.36845,0 z M 2,45.157933 l 15.15793,0 0,-15.157867 -15.15793,0 0,15.157867 z m 13.26319,-1.894733 -11.36845,0 0,-11.3684 11.36845,0 0,11.3684 z" style="fill:#000;fill-opacity:1;stroke-width:.2;stroke-linejoin:round"/></svg>