<svg xmlns="http://www.w3.org/2000/svg" xmlns:svg="http://www.w3.org/2000/svg" id="svg2" width="76" height="76" enable-background="new 0 0 76 76" version="1.1" viewBox="0 0 76 76" xml:space="preserve"><metadata id="metadata10"/><path id="path4" d="m 2,50.842133 15.157895,0 0,15.157867 L 2,66 2,50.842133 z m 22.736842,0 49.263158,0 L 74,66 l -49.263158,0 0,-15.157867 z m 0,-5.684199 0,-15.157867 7.578947,1.89e-4 0,1.894733 -5.68421,0 0,11.3684 17.052632,0 0,1.894734 -18.947369,-1.89e-4 z M 74,30.000067 l 0,15.157867 -18.947368,1.89e-4 0,-1.894734 17.052631,0 0,-11.3684 -5.68421,0 0,-1.894733 L 74,30.000067 z m -39.789474,8.052617 1.9e-4,-10.421034 15.157705,-15.157867 15.157895,15.157867 0,10.421034 -11.368421,-11.3684 0,18.47365 -7.578948,0 0,-18.47365 -11.368421,11.3684 z M 24.736842,9.158 74,9.158 l 0,15.157866 -9,0 -1.894737,-1.894733 9,0 0,-11.3684 -45.473684,0 0,11.3684 9,0 -1.894737,1.894733 -9,0 0,-15.157866 z M 2,9.158 l 15.157895,0 0,15.157866 L 2,24.315866 2,9.158 z m 1.894737,1.894733 0,11.3684 11.368421,0 0,-11.3684 -11.368421,0 z M 2,30.000067 l 15.157895,0 0,15.157867 -15.157895,0 0,-15.157867 z m 13.263158,1.894733 -11.368421,0 0,11.3684 11.368421,0 0,-11.3684 z" style="fill:#000;fill-opacity:1;stroke-width:.2;stroke-linejoin:round"/></svg>