<svg xmlns="http://www.w3.org/2000/svg" xmlns:svg="http://www.w3.org/2000/svg" id="svg2" width="76" height="76" enable-background="new 0 0 76 76" version="1.1" viewBox="0 0 76 76" xml:space="preserve"><metadata id="metadata10"/><path id="path4" d="m 26.415579,67.114611 6.699032,-6.698843 -6.699032,-6.699031 4.885579,-4.88539 L 38,55.530189 l 6.698842,-6.698842 4.88539,4.88539 -6.698843,6.698842 6.699032,6.699032 L 44.698842,72 38,65.301158 31.301158,72 26.415579,67.114611 z M 2,5.2105263 l 15.157895,0 0,15.1578947 L 2,20.368421 2,5.2105263 z m 22.736653,5.684e-4 49.262779,0 0,15.1578953 -49.262779,0 0,-15.1578953 z M 2,26.052632 l 15.157895,0 0,15.157894 -15.157895,0 0,-15.157894 z m 1.894737,1.894736 0,11.368421 11.368421,0 0,-11.368421 -11.368421,0 z m 1.894737,1.894737 7.578947,0 0,7.578948 -7.578947,0 0,-7.578948 z m 18.947368,-3.789473 49.263158,0 0,15.157894 -49.263158,0 0,-15.157894 z" style="fill:#000;fill-opacity:1;stroke-width:.2;stroke-linejoin:round"/></svg>