<svg xmlns="http://www.w3.org/2000/svg" xmlns:svg="http://www.w3.org/2000/svg" id="svg2" width="76" height="76" enable-background="new 0 0 76 76" version="1.1" viewBox="0 0 76 76" xml:space="preserve"><metadata id="metadata10"/><path id="path4" d="M 2,15.938367 C 27.130626,-0.8153645 35.014767,20.738046 35.671866,32.564069 36.328789,44.390263 24.830957,59.301088 10.376873,49.445835 l 0,19.54614 L 2,63.407339 2,15.938367 z m 8.048327,6.195888 0,19.545783 c 13.140228,7.883956 17.657042,1.396202 17.657042,-9.772893 0,-15.768258 -9.115802,-16.342826 -17.657042,-9.77289 z M 49.468843,10.353908 c 0,0 -0.656923,12.646601 0,25.129718 1.314024,12.483296 16.753753,2.792759 16.753753,2.792759 l 0,-25.130248 8.377404,1.021805 0,33.548555 c 0,22.338369 -22.338749,21.275478 -22.338749,21.275478 L 49.468494,60.61511 c 19.54651,0 17.082829,-12.939706 17.082829,-12.939706 C 42.898908,56.873558 41.09197,41.068971 41.09197,41.068971 l 0,-25.130604 8.376873,-5.584459 z" style="fill:#000;fill-opacity:1;stroke-width:.2;stroke-linejoin:round"/></svg>