<svg xmlns="http://www.w3.org/2000/svg" xmlns:svg="http://www.w3.org/2000/svg" id="svg2" width="76.011" height="76.011" enable-background="new 0 0 76.01 76.01" version="1.1" viewBox="0 0 76.01 76.01" xml:space="preserve"><metadata id="metadata10"/><path id="path4" d="m 6.4417254,29.891113 15.9998736,0 0,5.33346 2.666899,0 c 2.66673,-1.777764 7.999684,-3.555528 10.962624,-7.18515 2.96294,-3.629622 6.222257,-9.111103 9.333218,-12.222232 3.106919,-3.10675 6.065985,-3.849716 9.024715,-4.589483 l 0,-5.3418798 16.000043,0 0,15.9998748 -16.000043,0 0,-5.324704 c -2.896928,0.739767 -5.794025,1.482733 -8.882083,4.589484 -3.092605,3.111128 -6.376678,8.592609 -9.370602,12.222231 l -1.648941,1.851859 19.913919,0 0,-5.333292 15.999874,0 0,15.999874 -15.999874,0 0,-5.333291 -19.91375,0 c 0.540722,0.560761 1.089695,1.173893 1.648772,1.851858 2.993924,3.629454 6.277997,9.110935 9.370602,12.222063 3.092436,3.111129 5.993406,3.851906 8.894376,4.592515 l 0,-5.333292 15.999874,0 0,16.000043 -15.999874,0 0,-5.333291 c -2.96294,-0.740777 -5.92588,-1.481554 -9.037008,-4.592683 -3.110961,-3.111129 -6.370278,-8.592441 -9.333218,-12.222063 -2.96294,-3.629622 -8.295894,-5.407386 -10.962624,-7.18515 l -2.666899,0 0,5.333291 -15.9998736,0 0,-16.000042 z" style="fill:#000;fill-opacity:1;stroke-width:.2;stroke-linejoin:round"/></svg>