<svg xmlns="http://www.w3.org/2000/svg" xmlns:svg="http://www.w3.org/2000/svg" id="svg2" width="76" height="76" enable-background="new 0 0 76 76" version="1.1" viewBox="0 0 76 76" xml:space="preserve"><metadata id="metadata10"/><path id="path4" d="m 46.428388,24.285715 13.285654,0 L 46.428388,11 l 0,13.285715 z m 15.428501,6.857142 -22.285611,0 0,-22.2857139 -25.714167,0 L 13.857111,50 7,50 7,2.0000002 l 39.856958,0 L 68.714,23.857143 68.714,74 l -37.714111,0 0,-6.857143 30.857,0 0,-36 z M 20.714222,38 l 8.571388,0 0,13.714286 13.714223,0 0,8.571428 -13.714223,0 0,13.714286 -8.571388,0 0,-13.714286 -13.714222,0 0,-8.571428 13.714222,0 0,-13.714286 z M 7,74 7,62 l 6.857111,0 0,5.142857 5.142833,0 0,6.857143 L 7,74 z" style="fill:#000;fill-opacity:1;stroke-width:.2;stroke-linejoin:round"/></svg>