<svg xmlns="http://www.w3.org/2000/svg" xmlns:svg="http://www.w3.org/2000/svg" id="svg2" width="76" height="76" enable-background="new 0 0 76 76" version="1.1" viewBox="0 0 76 76" xml:space="preserve"><metadata id="metadata10"/><path id="path4" d="M 8,2 47.856958,2 69.714,23.857143 69.714,74 8,74 8,2 z m 6.857111,6.8571429 0,58.2857141 47.999778,0 0,-36 -22.285611,0 0,-22.2857141 -25.714167,0 z M 47.428388,11 l 0,13.285714 13.285654,0 L 47.428388,11 z m -22.28561,18.428571 6.857111,0 0,14.571429 5.142833,-5.142857 0,8.142857 -8.571388,8.571429 -8.57139,-9.428572 0,-7.285714 L 25.142778,44 l 0,-14.571429 z M 38.857,56.857143 l 0,6.857143 -20.571334,0 0,-6.857143 20.571334,0 z" style="fill:#000;fill-opacity:1;stroke-width:.2;stroke-linejoin:round"/></svg>