<svg xmlns="http://www.w3.org/2000/svg" xmlns:svg="http://www.w3.org/2000/svg" id="svg2" width="76" height="76" enable-background="new 0 0 76 76" version="1.1" viewBox="0 0 76 76" xml:space="preserve"><metadata id="metadata10"/><path id="path4" d="m 8.857143,12.714157 0,51.428685 8.571429,0 0,6.857158 L 2,71 2,5.857 l 15.428572,0 0,6.857157 -8.571429,0 z m 10.285714,41.142948 6.857143,0 0,10.285737 41.142857,0 0,-30.857211 -20.571428,0 0,-20.571474 -20.571429,0 0,30.857212 -6.857143,0 0,-37.714369 34.714286,0 L 74,25.999901 74,71 l -54.857143,0 0,-17.142895 z m -8.571429,-8.571447 30.857143,0 -12,-10.285737 10.285715,0 15.9288,14.285859 -15.9288,13.142773 -10.285715,0 12,-10.285737 -30.857143,0 0,-6.857158 z m 42.857143,-30.428639 0,11.571454 11.571429,0 -11.571429,-11.571454 z" style="fill:#000;fill-opacity:1;stroke-width:.2;stroke-linejoin:round"/></svg>