<svg xmlns="http://www.w3.org/2000/svg" xmlns:svg="http://www.w3.org/2000/svg" id="svg2" width="76" height="76" enable-background="new 0 0 76 76" version="1.1" viewBox="0 0 76 76" xml:space="preserve"><metadata id="metadata10"/><path id="path4" d="m 37.999843,25.692236 c 6.797589,0 12.307921,5.510332 12.307921,12.307919 0,6.797277 -5.510332,12.307609 -12.307921,12.307609 -6.797277,0 -12.307607,-5.510332 -12.307607,-12.307609 0,-6.797587 5.51033,-12.307919 12.307607,-12.307919 z m 0,-7.384627 c -10.875768,0 -19.692236,8.816777 -19.692236,19.692546 0,10.875768 8.816468,19.692236 19.692236,19.692236 10.875768,0 19.692548,-8.816468 19.692548,-19.692236 0,-10.875769 -8.81678,-19.692546 -19.692548,-19.692546 z M 37.999843,6 C 55.6732,6 70.000001,20.3268 70.000001,38.000155 70.000001,55.6732 55.6732,70 37.999843,70 20.326798,70 6,55.6732 6,38.000155 6,20.3268 20.326798,6 37.999843,6 z" style="fill:#000;fill-opacity:1;stroke-width:.2;stroke-linejoin:round"/></svg>